<svg xmlns="http://www.w3.org/2000/svg" viewBox="0 0 32 32" fill="none">
  <rect x="0.5" y="0.5" width="31" height="31" rx="7" fill="#EAF0E8" stroke="#5E8A6E" stroke-opacity="0.35"/>
  <g transform="translate(4 4)">
    <path d="M4.5 21.5 C 6 20, 9 19.4, 12 19.4 C 15 19.4, 18 20, 19.5 21.5 Z" fill="#C9A57B" stroke="#8B6F4E" stroke-width="1.3" stroke-linejoin="round"/>
    <path d="M11.6 19.6 C 11.9 16, 12.2 12.5, 12.6 8.4" stroke="#3E3A36" stroke-width="1.6" stroke-linecap="round" fill="none"/>
    <path d="M11.9 15.2 C 10.4 15, 8.8 14.6, 7.4 13.6" stroke="#3E3A36" stroke-width="1.2" stroke-linecap="round" fill="none"/>
    <path d="M7.4 13.6 C 5.4 13.2, 3.6 12.4, 3 10.8 C 2.8 10.2, 3.2 9.8, 4 9.9 C 5.6 10.1, 7.2 10.9, 8.6 12.2 C 9.2 12.8, 9 13.4, 8.2 13.6 C 7.9 13.68, 7.6 13.64, 7.4 13.6 Z" fill="#7FA98B" stroke="#3E3A36" stroke-width="1.3" stroke-linejoin="round"/>
    <path d="M4.4 10.8 C 5.6 11.3, 6.8 12, 8 12.6" stroke="#5E8A6E" stroke-width="0.9" stroke-linecap="round" fill="none"/>
    <path d="M12.6 8.4 C 13.4 7.6, 14.4 6.8, 15.6 6.2" stroke="#3E3A36" stroke-width="1.2" stroke-linecap="round" fill="none"/>
    <path d="M15.6 6.2 C 17.8 5, 20 5, 21 6.4 C 21.8 7.6, 21.6 9.4, 20.4 11 C 19 12.8, 16.6 13.8, 14.2 13.4 C 12.8 13.2, 12.2 12.4, 12.6 11.2 C 13 10, 14 8.4, 15.6 6.2 Z" fill="#7FA98B" stroke="#3E3A36" stroke-width="1.3" stroke-linejoin="round"/>
    <path d="M13.6 12 C 15.4 10.6, 17.2 9.2, 19.4 7.8" stroke="#5E8A6E" stroke-width="1" stroke-linecap="round" fill="none"/>
  </g>
</svg>
