<svg xmlns="http://www.w3.org/2000/svg" viewBox="0 0 32 32" fill="none">
  <rect x="0.5" y="0.5" width="31" height="31" rx="7" fill="#EAF0E8" stroke="#5E8A6E" stroke-opacity="0.35"/>
  <g transform="translate(4 4)">
    <path d="M12 24 C 6.4 24, 3.3 22.4, 3.3 20.4 C 3.3 18.6, 6.6 18.5, 12 18.5 C 17.4 18.5, 20.7 18.6, 20.7 20.4 C 20.7 22.4, 17.6 24, 12 24 Z" fill="#3EA05A"/>
    <circle cx="12" cy="15.9" r="7.6" fill="#3EA05A"/>
    <circle cx="12" cy="15.9" r="6.05" fill="#FCFAF3"/>
    <ellipse cx="8.6" cy="16.7" rx="1.35" ry="0.9" fill="#F7E8C4"/>
    <ellipse cx="15.4" cy="16.7" rx="1.35" ry="0.9" fill="#F7E8C4"/>
    <ellipse cx="9.8" cy="15.0" rx="0.7" ry="1.0" fill="#2A2822"/>
    <ellipse cx="14.2" cy="15.0" rx="0.7" ry="1.0" fill="#2A2822"/>
    <path d="M11.2 16.3 C 11.55 16.75, 12.45 16.75, 12.8 16.3" stroke="#2A2822" stroke-width="0.7" stroke-linecap="round" fill="none"/>
    <path d="M11.4 6.6 C 11.0 5.0, 10.2 3.4, 8.8 2.2 C 7.4 1.0, 5.2 0.4, 3.6 1.4 C 2.2 2.3, 2.4 4.4, 4.0 5.5 C 5.8 6.8, 8.4 7.2, 10.6 7.0 C 11.2 6.95, 11.5 6.9, 11.4 6.6 Z" fill="#3EA05A"/>
    <path d="M10.6 6.5 C 8.6 5.6, 6.6 4.4, 4.8 2.6" stroke="#2C7A42" stroke-width="0.5" stroke-linecap="round" fill="none"/>
    <path d="M12.6 6.6 C 13.0 5.0, 13.8 3.4, 15.2 2.2 C 16.6 1.0, 18.8 0.4, 20.4 1.4 C 21.8 2.3, 21.6 4.4, 20.0 5.5 C 18.2 6.8, 15.6 7.2, 13.4 7.0 C 12.8 6.95, 12.5 6.9, 12.6 6.6 Z" fill="#3EA05A"/>
    <path d="M13.4 6.5 C 15.4 5.6, 17.4 4.4, 19.2 2.6" stroke="#2C7A42" stroke-width="0.5" stroke-linecap="round" fill="none"/>
    <path d="M12 6.9 L 12 8.4" stroke="#3EA05A" stroke-width="1.4" stroke-linecap="round"/>
  </g>
</svg>
